# xmcd
# Track frame offsets:
# 150
# 14866
# 29918
# 43633
# 57594
# 69950
# 85271
# 98414
# 113141
# 129901
# 149098
# 162576
# 172984
# 185792
# 198327
# 213427
#
# Disc length: 3056 seconds
# Revision: 0
# Processed by: cddbd v1.5.2PL0 Copyright (c) Steve Scherf et al.
# Submitted via: VisiTrax 2.10.3.257 - For more info visit www.synapsa.com
#
DISCID=f00bee10
DTITLE=Neely, Sam - Neely
DYEAR=1900
DGENRE=Folk
TTITLE0=Rosalie
TTITLE1=Gentle People
TTITLE2=Kiss The Morning Sunshine
TTITLE3=Take Me Back Wife
TTITLE4=Ain't It Good To Be Home
TTITLE5=Sweet Country Child
TTITLE6=Bless Me Miss America
TTITLE7=Young And Free
TTITLE8=It's Another Day
TTITLE9=Neither Do I
TTITLE10=You Can Have Her (Bonus Single)
TTITLE11=I Fought The Law (Bonus Single)
TTITLE12=Sanctuary (Bonus Single)
TTITLE13=Sadie Take A Lover (Bonus Single)
TTITLE14=Sail Away (Bonus Single)
TTITLE15=M*A*S*H - The Party's Over (Everybody's Gone) (Bonus Single)
EXTD=
EXTT0=
EXTT1=
EXTT2=
EXTT3=
EXTT4=
EXTT5=
EXTT6=
EXTT7=
EXTT8=
EXTT9=
EXTT10=
EXTT11=
EXTT12=
EXTT13=
EXTT14=
EXTT15=
PLAYORDER=
